<svg id="Layer_1" data-name="Layer 1" xmlns="http://www.w3.org/2000/svg" viewBox="0 0 283.46 283.46"><defs><style>.cls-1{fill:#894b7f;}.cls-2{fill:#333;}</style></defs><polygon class="cls-1" points="181.47 129.23 222.18 150.07 171.93 134.76 181.47 129.23"/><polygon class="cls-1" points="101.18 147.06 131.55 158.29 91.63 152.58 101.18 147.06"/><path class="cls-1" d="M253.79,158c.39-5,.67-8.83.84-11.64.12-2.1.19-3.64.19-4.53q0-31.92-14.72-57.94a106.25,106.25,0,0,0-40.62-40.73q-25.93-14.7-57.64-14.71-31.91,0-58,14.71A106.87,106.87,0,0,0,42.86,83.69Q28,109.51,28.05,141q0,48.72,33.79,81.48t84.56,32.75q31.11,0,57.11-12.65a114.11,114.11,0,0,0,41.64-33.67l-30.08-15.4a85.12,85.12,0,0,1-24.71,18.29,93.29,93.29,0,0,1-42.7,9.85q-31.3,0-53-17.52T67.5,158.3l32.36-18.73L190,171.64l-49.42-27,.31-.18,41-23.34ZM89.87,82.11c.93-.87,1.88-1.73,2.86-2.56Q113.25,62,141.44,62q28.4,0,48.92,17.3a73.15,73.15,0,0,1,16.69,20,64.94,64.94,0,0,1,5,11.26l-30.3-17.46-55.61,32.07L101.44,111l-34,19.63C68.72,112.28,76.4,94.76,89.87,82.11Z"/><path class="cls-2" d="M234,245.84v1.52h-2.83v7.87H229.5v-7.87h-2.85v-1.52Z"/><path class="cls-2" d="M243.15,245.84h2v9.39h-1.62v-6.89l-2.82,5.08h-.92L237,248.36v6.87h-1.62v-9.39h2l2.9,5.16Z"/></svg>